<svg xmlns="http://www.w3.org/2000/svg" viewBox="0 0 64 64" fill="none" role="img" aria-label="GestOP">
  <defs>
    <linearGradient id="gestop-gradient" x1="8" y1="8" x2="56" y2="56" gradientUnits="userSpaceOnUse">
      <stop stop-color="#0066CC"/>
      <stop offset="1" stop-color="#0199DC"/>
    </linearGradient>
  </defs>
  <rect width="64" height="64" rx="18" fill="url(#gestop-gradient)"/>
  <path d="M32 14c-8.8 0-16 7.2-16 16 0 12 16 30 16 30s16-18 16-30c0-8.8-7.2-16-16-16zm0 22a6 6 0 1 1 0-12 6 6 0 0 1 0 12z" fill="#FFFFFF"/>
  <path d="M44 18.5c2.2 3.1 3.5 6.9 3.5 11 0 8.6-7.5 17.8-11.5 22.5" stroke="#FFFFFF" stroke-opacity="0.35" stroke-width="2" stroke-linecap="round"/>
</svg>
