<svg xmlns="http://www.w3.org/2000/svg" viewBox="0 0 220 64" fill="none" role="img" aria-label="SIGMA">
  <defs>
    <linearGradient id="sigma-gradient" x1="8" y1="8" x2="56" y2="56" gradientUnits="userSpaceOnUse">
      <stop stop-color="#0066CC"/>
      <stop offset="1" stop-color="#0199DC"/>
    </linearGradient>
  </defs>
  <rect width="64" height="64" rx="18" fill="url(#sigma-gradient)"/>
  <path d="M32 14c-8.8 0-16 7.2-16 16 0 12 16 30 16 30s16-18 16-30c0-8.8-7.2-16-16-16zm0 22a6 6 0 1 1 0-12 6 6 0 0 1 0 12z" fill="#FFFFFF"/>
  <path d="M44 18.5c2.2 3.1 3.5 6.9 3.5 11 0 8.6-7.5 17.8-11.5 22.5" stroke="#FFFFFF" stroke-opacity="0.35" stroke-width="2" stroke-linecap="round"/>
  <text x="80" y="38" fill="#1F2937" font-family="system-ui, -apple-system, Segoe UI, sans-serif" font-size="28" font-weight="700" letter-spacing="-0.02em">SIG</text>
  <text x="136" y="38" fill="#0066CC" font-family="system-ui, -apple-system, Segoe UI, sans-serif" font-size="28" font-weight="700" letter-spacing="-0.02em">MA</text>
  <text x="80" y="54" fill="#6B7280" font-family="system-ui, -apple-system, Segoe UI, sans-serif" font-size="11" font-weight="600" letter-spacing="0.12em">FRANCA</text>
</svg>
